#N canvas 759 596 424 368 10;
#X declare -lib mrpeach;
#X obj 264 30 import mrpeach;
#X obj 28 282 print;
#X obj 30 76 packOSC;
#X obj 28 248 unpackOSC;
#X obj 30 11 tgl 15 0 empty empty empty 17 7 0 10 -262144 -1 -1 0 1
;
#X obj 28 166 udpsend;
#X obj 28 199 tgl 15 0 empty empty empty 17 7 0 10 -262144 -1 -1 0
1;
#X msg 43 136 disconnect;
#X msg 45 104 connect 192.168.0.111 10000;
#X obj 27 223 udpreceive 9999;
#X msg 30 37 send /vp/shutter \$1;
#X connect 2 0 5 0;
#X connect 3 0 1 0;
#X connect 4 0 10 0;
#X connect 5 0 6 0;
#X connect 7 0 5 0;
#X connect 8 0 5 0;
#X connect 9 0 3 0;
#X connect 10 0 2 0;
