#N canvas 1248 200 353 310 10;
#X msg 40 37 connect 10.0.0.11 4352;
#X msg 204 38 send "%1AVMT 31 ";
#X obj 39 81 tcpsend;
#X obj 39 112 tgl 15 0 empty empty connected 20 7 0 8 -24198 -241291
-1 0 1;
#X msg 206 64 send "%1AVMT 30 ";
#X floatatom 94 241 3 0 0 0 - - -;
#X floatatom 121 241 3 0 0 0 - - -;
#X floatatom 148 241 3 0 0 0 - - -;
#X floatatom 175 241 3 0 0 0 - - -;
#X text 51 240 from;
#X obj 43 282 print message;
#X obj 43 154 tcpreceive 9997;
#X floatatom 145 193 5 0 0 0 - - -;
#X text 191 191 connections;
#X text 56 130 tcpreceive receives bytes over a tcp connection.;
#X floatatom 203 241 5 0 0 0 - - -;
#X obj 94 214 unpack 0 0 0 0 0;
#X connect 0 0 2 0;
#X connect 1 0 2 0;
#X connect 2 0 3 0;
#X connect 4 0 2 0;
#X connect 11 0 10 0;
#X connect 11 1 16 0;
#X connect 11 2 12 0;
#X connect 16 0 5 0;
#X connect 16 1 6 0;
#X connect 16 2 7 0;
#X connect 16 3 8 0;
#X connect 16 4 15 0;
